<svg xmlns="http://www.w3.org/2000/svg" width="868" height="1452" viewBox="0 0 868 1452" role="img" aria-labelledby="title desc">
  <title id="title">Turbo Themes Home Assistant swatches</title>
  <desc id="desc">Static preview swatches generated from catalog.json preview colors.</desc>
  <rect width="100%" height="100%" fill="#f6f8fa"/>
  <text x="24" y="34" font-family="Inter, Segoe UI, Arial, sans-serif" font-size="22" font-weight="700" fill="#1f2328">Turbo Themes for Home Assistant</text>
  <text x="24" y="54" font-family="Inter, Segoe UI, Arial, sans-serif" font-size="13" fill="#59636e">Generated from @lgtm-hq/turbo-themes catalog preview colors</text>
  <g transform="translate(24 80)">
    <rect width="260" height="132" rx="16" fill="#ffffff" stroke="#d0d7de"/>
    <rect x="12" y="12" width="236" height="78" rx="12" fill="#141414"/>
    <rect x="28" y="28" width="94" height="46" rx="8" fill="#1f1f1f"/>
    <circle cx="204" cy="51" r="23" fill="#00d1b2"/>
    <text x="42" y="57" font-family="Inter, Segoe UI, Arial, sans-serif" font-size="14" font-weight="700" fill="#f5f5f5">Aa</text>
    <text x="14" y="112" font-family="Inter, Segoe UI, Arial, sans-serif" font-size="14" font-weight="700" fill="#1f2328">Bulma Dark</text>
    <text x="14" y="126" font-family="Inter, Segoe UI, Arial, sans-serif" font-size="10" fill="#59636e">bulma-dark</text>
    <text x="206" y="124" text-anchor="middle" font-family="Inter, Segoe UI, Arial, sans-serif" font-size="10" font-weight="700" fill="#59636e">DARK</text>
  </g>
  <g transform="translate(304 80)">
    <rect width="260" height="132" rx="16" fill="#ffffff" stroke="#d0d7de"/>
    <rect x="12" y="12" width="236" height="78" rx="12" fill="#ffffff"/>
    <rect x="28" y="28" width="94" height="46" rx="8" fill="#f5f5f5"/>
    <circle cx="204" cy="51" r="23" fill="#00d1b2"/>
    <text x="42" y="57" font-family="Inter, Segoe UI, Arial, sans-serif" font-size="14" font-weight="700" fill="#363636">Aa</text>
    <text x="14" y="112" font-family="Inter, Segoe UI, Arial, sans-serif" font-size="14" font-weight="700" fill="#1f2328">Bulma Light</text>
    <text x="14" y="126" font-family="Inter, Segoe UI, Arial, sans-serif" font-size="10" fill="#59636e">bulma-light</text>
    <text x="206" y="124" text-anchor="middle" font-family="Inter, Segoe UI, Arial, sans-serif" font-size="10" font-weight="700" fill="#59636e">LIGHT</text>
  </g>
  <g transform="translate(584 80)">
    <rect width="260" height="132" rx="16" fill="#ffffff" stroke="#d0d7de"/>
    <rect x="12" y="12" width="236" height="78" rx="12" fill="#303446"/>
    <rect x="28" y="28" width="94" height="46" rx="8" fill="#292c3c"/>
    <circle cx="204" cy="51" r="23" fill="#8caaee"/>
    <text x="42" y="57" font-family="Inter, Segoe UI, Arial, sans-serif" font-size="14" font-weight="700" fill="#c6d0f5">Aa</text>
    <text x="14" y="112" font-family="Inter, Segoe UI, Arial, sans-serif" font-size="14" font-weight="700" fill="#1f2328">Catppuccin Frappé</text>
    <text x="14" y="126" font-family="Inter, Segoe UI, Arial, sans-serif" font-size="10" fill="#59636e">catppuccin-frappe</text>
    <text x="206" y="124" text-anchor="middle" font-family="Inter, Segoe UI, Arial, sans-serif" font-size="10" font-weight="700" fill="#59636e">DARK</text>
  </g>
  <g transform="translate(24 232)">
    <rect width="260" height="132" rx="16" fill="#ffffff" stroke="#d0d7de"/>
    <rect x="12" y="12" width="236" height="78" rx="12" fill="#eff1f5"/>
    <rect x="28" y="28" width="94" height="46" rx="8" fill="#e6e9ef"/>
    <circle cx="204" cy="51" r="23" fill="#1e66f5"/>
    <text x="42" y="57" font-family="Inter, Segoe UI, Arial, sans-serif" font-size="14" font-weight="700" fill="#4c4f69">Aa</text>
    <text x="14" y="112" font-family="Inter, Segoe UI, Arial, sans-serif" font-size="14" font-weight="700" fill="#1f2328">Catppuccin Latte</text>
    <text x="14" y="126" font-family="Inter, Segoe UI, Arial, sans-serif" font-size="10" fill="#59636e">catppuccin-latte</text>
    <text x="206" y="124" text-anchor="middle" font-family="Inter, Segoe UI, Arial, sans-serif" font-size="10" font-weight="700" fill="#59636e">LIGHT</text>
  </g>
  <g transform="translate(304 232)">
    <rect width="260" height="132" rx="16" fill="#ffffff" stroke="#d0d7de"/>
    <rect x="12" y="12" width="236" height="78" rx="12" fill="#24273a"/>
    <rect x="28" y="28" width="94" height="46" rx="8" fill="#1e2030"/>
    <circle cx="204" cy="51" r="23" fill="#8aadf4"/>
    <text x="42" y="57" font-family="Inter, Segoe UI, Arial, sans-serif" font-size="14" font-weight="700" fill="#cad3f5">Aa</text>
    <text x="14" y="112" font-family="Inter, Segoe UI, Arial, sans-serif" font-size="14" font-weight="700" fill="#1f2328">Catppuccin Macchiato</text>
    <text x="14" y="126" font-family="Inter, Segoe UI, Arial, sans-serif" font-size="10" fill="#59636e">catppuccin-macchiato</text>
    <text x="206" y="124" text-anchor="middle" font-family="Inter, Segoe UI, Arial, sans-serif" font-size="10" font-weight="700" fill="#59636e">DARK</text>
  </g>
  <g transform="translate(584 232)">
    <rect width="260" height="132" rx="16" fill="#ffffff" stroke="#d0d7de"/>
    <rect x="12" y="12" width="236" height="78" rx="12" fill="#1e1e2e"/>
    <rect x="28" y="28" width="94" height="46" rx="8" fill="#181825"/>
    <circle cx="204" cy="51" r="23" fill="#89b4fa"/>
    <text x="42" y="57" font-family="Inter, Segoe UI, Arial, sans-serif" font-size="14" font-weight="700" fill="#cdd6f4">Aa</text>
    <text x="14" y="112" font-family="Inter, Segoe UI, Arial, sans-serif" font-size="14" font-weight="700" fill="#1f2328">Catppuccin Mocha</text>
    <text x="14" y="126" font-family="Inter, Segoe UI, Arial, sans-serif" font-size="10" fill="#59636e">catppuccin-mocha</text>
    <text x="206" y="124" text-anchor="middle" font-family="Inter, Segoe UI, Arial, sans-serif" font-size="10" font-weight="700" fill="#59636e">DARK</text>
  </g>
  <g transform="translate(24 384)">
    <rect width="260" height="132" rx="16" fill="#ffffff" stroke="#d0d7de"/>
    <rect x="12" y="12" width="236" height="78" rx="12" fill="#282a36"/>
    <rect x="28" y="28" width="94" height="46" rx="8" fill="#21222c"/>
    <circle cx="204" cy="51" r="23" fill="#bd93f9"/>
    <text x="42" y="57" font-family="Inter, Segoe UI, Arial, sans-serif" font-size="14" font-weight="700" fill="#f8f8f2">Aa</text>
    <text x="14" y="112" font-family="Inter, Segoe UI, Arial, sans-serif" font-size="14" font-weight="700" fill="#1f2328">Dracula</text>
    <text x="14" y="126" font-family="Inter, Segoe UI, Arial, sans-serif" font-size="10" fill="#59636e">dracula</text>
    <text x="206" y="124" text-anchor="middle" font-family="Inter, Segoe UI, Arial, sans-serif" font-size="10" font-weight="700" fill="#59636e">DARK</text>
  </g>
  <g transform="translate(304 384)">
    <rect width="260" height="132" rx="16" fill="#ffffff" stroke="#d0d7de"/>
    <rect x="12" y="12" width="236" height="78" rx="12" fill="#0d1117"/>
    <rect x="28" y="28" width="94" height="46" rx="8" fill="#151b23"/>
    <circle cx="204" cy="51" r="23" fill="#1f6feb"/>
    <text x="42" y="57" font-family="Inter, Segoe UI, Arial, sans-serif" font-size="14" font-weight="700" fill="#f0f6fc">Aa</text>
    <text x="14" y="112" font-family="Inter, Segoe UI, Arial, sans-serif" font-size="14" font-weight="700" fill="#1f2328">GitHub Dark</text>
    <text x="14" y="126" font-family="Inter, Segoe UI, Arial, sans-serif" font-size="10" fill="#59636e">github-dark</text>
    <text x="206" y="124" text-anchor="middle" font-family="Inter, Segoe UI, Arial, sans-serif" font-size="10" font-weight="700" fill="#59636e">DARK</text>
  </g>
  <g transform="translate(584 384)">
    <rect width="260" height="132" rx="16" fill="#ffffff" stroke="#d0d7de"/>
    <rect x="12" y="12" width="236" height="78" rx="12" fill="#ffffff"/>
    <rect x="28" y="28" width="94" height="46" rx="8" fill="#f6f8fa"/>
    <circle cx="204" cy="51" r="23" fill="#0969da"/>
    <text x="42" y="57" font-family="Inter, Segoe UI, Arial, sans-serif" font-size="14" font-weight="700" fill="#1f2328">Aa</text>
    <text x="14" y="112" font-family="Inter, Segoe UI, Arial, sans-serif" font-size="14" font-weight="700" fill="#1f2328">GitHub Light</text>
    <text x="14" y="126" font-family="Inter, Segoe UI, Arial, sans-serif" font-size="10" fill="#59636e">github-light</text>
    <text x="206" y="124" text-anchor="middle" font-family="Inter, Segoe UI, Arial, sans-serif" font-size="10" font-weight="700" fill="#59636e">LIGHT</text>
  </g>
  <g transform="translate(24 536)">
    <rect width="260" height="132" rx="16" fill="#ffffff" stroke="#d0d7de"/>
    <rect x="12" y="12" width="236" height="78" rx="12" fill="#1d2021"/>
    <rect x="28" y="28" width="94" height="46" rx="8" fill="#282828"/>
    <circle cx="204" cy="51" r="23" fill="#d79921"/>
    <text x="42" y="57" font-family="Inter, Segoe UI, Arial, sans-serif" font-size="14" font-weight="700" fill="#ebdbb2">Aa</text>
    <text x="14" y="112" font-family="Inter, Segoe UI, Arial, sans-serif" font-size="14" font-weight="700" fill="#1f2328">Gruvbox Dark Hard</text>
    <text x="14" y="126" font-family="Inter, Segoe UI, Arial, sans-serif" font-size="10" fill="#59636e">gruvbox-dark-hard</text>
    <text x="206" y="124" text-anchor="middle" font-family="Inter, Segoe UI, Arial, sans-serif" font-size="10" font-weight="700" fill="#59636e">DARK</text>
  </g>
  <g transform="translate(304 536)">
    <rect width="260" height="132" rx="16" fill="#ffffff" stroke="#d0d7de"/>
    <rect x="12" y="12" width="236" height="78" rx="12" fill="#32302f"/>
    <rect x="28" y="28" width="94" height="46" rx="8" fill="#3c3836"/>
    <circle cx="204" cy="51" r="23" fill="#d79921"/>
    <text x="42" y="57" font-family="Inter, Segoe UI, Arial, sans-serif" font-size="14" font-weight="700" fill="#ebdbb2">Aa</text>
    <text x="14" y="112" font-family="Inter, Segoe UI, Arial, sans-serif" font-size="14" font-weight="700" fill="#1f2328">Gruvbox Dark Soft</text>
    <text x="14" y="126" font-family="Inter, Segoe UI, Arial, sans-serif" font-size="10" fill="#59636e">gruvbox-dark-soft</text>
    <text x="206" y="124" text-anchor="middle" font-family="Inter, Segoe UI, Arial, sans-serif" font-size="10" font-weight="700" fill="#59636e">DARK</text>
  </g>
  <g transform="translate(584 536)">
    <rect width="260" height="132" rx="16" fill="#ffffff" stroke="#d0d7de"/>
    <rect x="12" y="12" width="236" height="78" rx="12" fill="#282828"/>
    <rect x="28" y="28" width="94" height="46" rx="8" fill="#3c3836"/>
    <circle cx="204" cy="51" r="23" fill="#d79921"/>
    <text x="42" y="57" font-family="Inter, Segoe UI, Arial, sans-serif" font-size="14" font-weight="700" fill="#ebdbb2">Aa</text>
    <text x="14" y="112" font-family="Inter, Segoe UI, Arial, sans-serif" font-size="14" font-weight="700" fill="#1f2328">Gruvbox Dark</text>
    <text x="14" y="126" font-family="Inter, Segoe UI, Arial, sans-serif" font-size="10" fill="#59636e">gruvbox-dark</text>
    <text x="206" y="124" text-anchor="middle" font-family="Inter, Segoe UI, Arial, sans-serif" font-size="10" font-weight="700" fill="#59636e">DARK</text>
  </g>
  <g transform="translate(24 688)">
    <rect width="260" height="132" rx="16" fill="#ffffff" stroke="#d0d7de"/>
    <rect x="12" y="12" width="236" height="78" rx="12" fill="#f9f5d7"/>
    <rect x="28" y="28" width="94" height="46" rx="8" fill="#fbf1c7"/>
    <circle cx="204" cy="51" r="23" fill="#b57614"/>
    <text x="42" y="57" font-family="Inter, Segoe UI, Arial, sans-serif" font-size="14" font-weight="700" fill="#3c3836">Aa</text>
    <text x="14" y="112" font-family="Inter, Segoe UI, Arial, sans-serif" font-size="14" font-weight="700" fill="#1f2328">Gruvbox Light Hard</text>
    <text x="14" y="126" font-family="Inter, Segoe UI, Arial, sans-serif" font-size="10" fill="#59636e">gruvbox-light-hard</text>
    <text x="206" y="124" text-anchor="middle" font-family="Inter, Segoe UI, Arial, sans-serif" font-size="10" font-weight="700" fill="#59636e">LIGHT</text>
  </g>
  <g transform="translate(304 688)">
    <rect width="260" height="132" rx="16" fill="#ffffff" stroke="#d0d7de"/>
    <rect x="12" y="12" width="236" height="78" rx="12" fill="#f2e5bc"/>
    <rect x="28" y="28" width="94" height="46" rx="8" fill="#ebdbb2"/>
    <circle cx="204" cy="51" r="23" fill="#b57614"/>
    <text x="42" y="57" font-family="Inter, Segoe UI, Arial, sans-serif" font-size="14" font-weight="700" fill="#3c3836">Aa</text>
    <text x="14" y="112" font-family="Inter, Segoe UI, Arial, sans-serif" font-size="14" font-weight="700" fill="#1f2328">Gruvbox Light Soft</text>
    <text x="14" y="126" font-family="Inter, Segoe UI, Arial, sans-serif" font-size="10" fill="#59636e">gruvbox-light-soft</text>
    <text x="206" y="124" text-anchor="middle" font-family="Inter, Segoe UI, Arial, sans-serif" font-size="10" font-weight="700" fill="#59636e">LIGHT</text>
  </g>
  <g transform="translate(584 688)">
    <rect width="260" height="132" rx="16" fill="#ffffff" stroke="#d0d7de"/>
    <rect x="12" y="12" width="236" height="78" rx="12" fill="#fbf1c7"/>
    <rect x="28" y="28" width="94" height="46" rx="8" fill="#ebdbb2"/>
    <circle cx="204" cy="51" r="23" fill="#b57614"/>
    <text x="42" y="57" font-family="Inter, Segoe UI, Arial, sans-serif" font-size="14" font-weight="700" fill="#3c3836">Aa</text>
    <text x="14" y="112" font-family="Inter, Segoe UI, Arial, sans-serif" font-size="14" font-weight="700" fill="#1f2328">Gruvbox Light</text>
    <text x="14" y="126" font-family="Inter, Segoe UI, Arial, sans-serif" font-size="10" fill="#59636e">gruvbox-light</text>
    <text x="206" y="124" text-anchor="middle" font-family="Inter, Segoe UI, Arial, sans-serif" font-size="10" font-weight="700" fill="#59636e">LIGHT</text>
  </g>
  <g transform="translate(24 840)">
    <rect width="260" height="132" rx="16" fill="#ffffff" stroke="#d0d7de"/>
    <rect x="12" y="12" width="236" height="78" rx="12" fill="#2e3440"/>
    <rect x="28" y="28" width="94" height="46" rx="8" fill="#3b4252"/>
    <circle cx="204" cy="51" r="23" fill="#88c0d0"/>
    <text x="42" y="57" font-family="Inter, Segoe UI, Arial, sans-serif" font-size="14" font-weight="700" fill="#eceff4">Aa</text>
    <text x="14" y="112" font-family="Inter, Segoe UI, Arial, sans-serif" font-size="14" font-weight="700" fill="#1f2328">Nord</text>
    <text x="14" y="126" font-family="Inter, Segoe UI, Arial, sans-serif" font-size="10" fill="#59636e">nord</text>
    <text x="206" y="124" text-anchor="middle" font-family="Inter, Segoe UI, Arial, sans-serif" font-size="10" font-weight="700" fill="#59636e">DARK</text>
  </g>
  <g transform="translate(304 840)">
    <rect width="260" height="132" rx="16" fill="#ffffff" stroke="#d0d7de"/>
    <rect x="12" y="12" width="236" height="78" rx="12" fill="#282c34"/>
    <rect x="28" y="28" width="94" height="46" rx="8" fill="#2c313a"/>
    <circle cx="204" cy="51" r="23" fill="#61afef"/>
    <text x="42" y="57" font-family="Inter, Segoe UI, Arial, sans-serif" font-size="14" font-weight="700" fill="#abb2bf">Aa</text>
    <text x="14" y="112" font-family="Inter, Segoe UI, Arial, sans-serif" font-size="14" font-weight="700" fill="#1f2328">One Dark</text>
    <text x="14" y="126" font-family="Inter, Segoe UI, Arial, sans-serif" font-size="10" fill="#59636e">one-dark</text>
    <text x="206" y="124" text-anchor="middle" font-family="Inter, Segoe UI, Arial, sans-serif" font-size="10" font-weight="700" fill="#59636e">DARK</text>
  </g>
  <g transform="translate(584 840)">
    <rect width="260" height="132" rx="16" fill="#ffffff" stroke="#d0d7de"/>
    <rect x="12" y="12" width="236" height="78" rx="12" fill="#fafafa"/>
    <rect x="28" y="28" width="94" height="46" rx="8" fill="#f0f0f0"/>
    <circle cx="204" cy="51" r="23" fill="#4078f2"/>
    <text x="42" y="57" font-family="Inter, Segoe UI, Arial, sans-serif" font-size="14" font-weight="700" fill="#383a42">Aa</text>
    <text x="14" y="112" font-family="Inter, Segoe UI, Arial, sans-serif" font-size="14" font-weight="700" fill="#1f2328">One Light</text>
    <text x="14" y="126" font-family="Inter, Segoe UI, Arial, sans-serif" font-size="10" fill="#59636e">one-light</text>
    <text x="206" y="124" text-anchor="middle" font-family="Inter, Segoe UI, Arial, sans-serif" font-size="10" font-weight="700" fill="#59636e">LIGHT</text>
  </g>
  <g transform="translate(24 992)">
    <rect width="260" height="132" rx="16" fill="#ffffff" stroke="#d0d7de"/>
    <rect x="12" y="12" width="236" height="78" rx="12" fill="#faf4ed"/>
    <rect x="28" y="28" width="94" height="46" rx="8" fill="#fffaf3"/>
    <circle cx="204" cy="51" r="23" fill="#907aa9"/>
    <text x="42" y="57" font-family="Inter, Segoe UI, Arial, sans-serif" font-size="14" font-weight="700" fill="#575279">Aa</text>
    <text x="14" y="112" font-family="Inter, Segoe UI, Arial, sans-serif" font-size="14" font-weight="700" fill="#1f2328">Rosé Pine Dawn</text>
    <text x="14" y="126" font-family="Inter, Segoe UI, Arial, sans-serif" font-size="10" fill="#59636e">rose-pine-dawn</text>
    <text x="206" y="124" text-anchor="middle" font-family="Inter, Segoe UI, Arial, sans-serif" font-size="10" font-weight="700" fill="#59636e">LIGHT</text>
  </g>
  <g transform="translate(304 992)">
    <rect width="260" height="132" rx="16" fill="#ffffff" stroke="#d0d7de"/>
    <rect x="12" y="12" width="236" height="78" rx="12" fill="#232136"/>
    <rect x="28" y="28" width="94" height="46" rx="8" fill="#2a273f"/>
    <circle cx="204" cy="51" r="23" fill="#c4a7e7"/>
    <text x="42" y="57" font-family="Inter, Segoe UI, Arial, sans-serif" font-size="14" font-weight="700" fill="#e0def4">Aa</text>
    <text x="14" y="112" font-family="Inter, Segoe UI, Arial, sans-serif" font-size="14" font-weight="700" fill="#1f2328">Rosé Pine Moon</text>
    <text x="14" y="126" font-family="Inter, Segoe UI, Arial, sans-serif" font-size="10" fill="#59636e">rose-pine-moon</text>
    <text x="206" y="124" text-anchor="middle" font-family="Inter, Segoe UI, Arial, sans-serif" font-size="10" font-weight="700" fill="#59636e">DARK</text>
  </g>
  <g transform="translate(584 992)">
    <rect width="260" height="132" rx="16" fill="#ffffff" stroke="#d0d7de"/>
    <rect x="12" y="12" width="236" height="78" rx="12" fill="#191724"/>
    <rect x="28" y="28" width="94" height="46" rx="8" fill="#1f1d2e"/>
    <circle cx="204" cy="51" r="23" fill="#c4a7e7"/>
    <text x="42" y="57" font-family="Inter, Segoe UI, Arial, sans-serif" font-size="14" font-weight="700" fill="#e0def4">Aa</text>
    <text x="14" y="112" font-family="Inter, Segoe UI, Arial, sans-serif" font-size="14" font-weight="700" fill="#1f2328">Rosé Pine</text>
    <text x="14" y="126" font-family="Inter, Segoe UI, Arial, sans-serif" font-size="10" fill="#59636e">rose-pine</text>
    <text x="206" y="124" text-anchor="middle" font-family="Inter, Segoe UI, Arial, sans-serif" font-size="10" font-weight="700" fill="#59636e">DARK</text>
  </g>
  <g transform="translate(24 1144)">
    <rect width="260" height="132" rx="16" fill="#ffffff" stroke="#d0d7de"/>
    <rect x="12" y="12" width="236" height="78" rx="12" fill="#002b36"/>
    <rect x="28" y="28" width="94" height="46" rx="8" fill="#073642"/>
    <circle cx="204" cy="51" r="23" fill="#268bd2"/>
    <text x="42" y="57" font-family="Inter, Segoe UI, Arial, sans-serif" font-size="14" font-weight="700" fill="#839496">Aa</text>
    <text x="14" y="112" font-family="Inter, Segoe UI, Arial, sans-serif" font-size="14" font-weight="700" fill="#1f2328">Solarized Dark</text>
    <text x="14" y="126" font-family="Inter, Segoe UI, Arial, sans-serif" font-size="10" fill="#59636e">solarized-dark</text>
    <text x="206" y="124" text-anchor="middle" font-family="Inter, Segoe UI, Arial, sans-serif" font-size="10" font-weight="700" fill="#59636e">DARK</text>
  </g>
  <g transform="translate(304 1144)">
    <rect width="260" height="132" rx="16" fill="#ffffff" stroke="#d0d7de"/>
    <rect x="12" y="12" width="236" height="78" rx="12" fill="#fdf6e3"/>
    <rect x="28" y="28" width="94" height="46" rx="8" fill="#eee8d5"/>
    <circle cx="204" cy="51" r="23" fill="#268bd2"/>
    <text x="42" y="57" font-family="Inter, Segoe UI, Arial, sans-serif" font-size="14" font-weight="700" fill="#586e75">Aa</text>
    <text x="14" y="112" font-family="Inter, Segoe UI, Arial, sans-serif" font-size="14" font-weight="700" fill="#1f2328">Solarized Light</text>
    <text x="14" y="126" font-family="Inter, Segoe UI, Arial, sans-serif" font-size="10" fill="#59636e">solarized-light</text>
    <text x="206" y="124" text-anchor="middle" font-family="Inter, Segoe UI, Arial, sans-serif" font-size="10" font-weight="700" fill="#59636e">LIGHT</text>
  </g>
  <g transform="translate(584 1144)">
    <rect width="260" height="132" rx="16" fill="#ffffff" stroke="#d0d7de"/>
    <rect x="12" y="12" width="236" height="78" rx="12" fill="#0d0d0d"/>
    <rect x="28" y="28" width="94" height="46" rx="8" fill="#080808"/>
    <circle cx="204" cy="51" r="23" fill="#39ff14"/>
    <text x="42" y="57" font-family="Inter, Segoe UI, Arial, sans-serif" font-size="14" font-weight="700" fill="#c8ffc8">Aa</text>
    <text x="14" y="112" font-family="Inter, Segoe UI, Arial, sans-serif" font-size="14" font-weight="700" fill="#1f2328">Terminal</text>
    <text x="14" y="126" font-family="Inter, Segoe UI, Arial, sans-serif" font-size="10" fill="#59636e">terminal</text>
    <text x="206" y="124" text-anchor="middle" font-family="Inter, Segoe UI, Arial, sans-serif" font-size="10" font-weight="700" fill="#59636e">DARK</text>
  </g>
  <g transform="translate(24 1296)">
    <rect width="260" height="132" rx="16" fill="#ffffff" stroke="#d0d7de"/>
    <rect x="12" y="12" width="236" height="78" rx="12" fill="#1a1b26"/>
    <rect x="28" y="28" width="94" height="46" rx="8" fill="#24283b"/>
    <circle cx="204" cy="51" r="23" fill="#7aa2f7"/>
    <text x="42" y="57" font-family="Inter, Segoe UI, Arial, sans-serif" font-size="14" font-weight="700" fill="#c0caf5">Aa</text>
    <text x="14" y="112" font-family="Inter, Segoe UI, Arial, sans-serif" font-size="14" font-weight="700" fill="#1f2328">Tokyo Night Dark</text>
    <text x="14" y="126" font-family="Inter, Segoe UI, Arial, sans-serif" font-size="10" fill="#59636e">tokyo-night-dark</text>
    <text x="206" y="124" text-anchor="middle" font-family="Inter, Segoe UI, Arial, sans-serif" font-size="10" font-weight="700" fill="#59636e">DARK</text>
  </g>
  <g transform="translate(304 1296)">
    <rect width="260" height="132" rx="16" fill="#ffffff" stroke="#d0d7de"/>
    <rect x="12" y="12" width="236" height="78" rx="12" fill="#e6e7ed"/>
    <rect x="28" y="28" width="94" height="46" rx="8" fill="#d5d6dc"/>
    <circle cx="204" cy="51" r="23" fill="#2e7de9"/>
    <text x="42" y="57" font-family="Inter, Segoe UI, Arial, sans-serif" font-size="14" font-weight="700" fill="#343b58">Aa</text>
    <text x="14" y="112" font-family="Inter, Segoe UI, Arial, sans-serif" font-size="14" font-weight="700" fill="#1f2328">Tokyo Night Light</text>
    <text x="14" y="126" font-family="Inter, Segoe UI, Arial, sans-serif" font-size="10" fill="#59636e">tokyo-night-light</text>
    <text x="206" y="124" text-anchor="middle" font-family="Inter, Segoe UI, Arial, sans-serif" font-size="10" font-weight="700" fill="#59636e">LIGHT</text>
  </g>
  <g transform="translate(584 1296)">
    <rect width="260" height="132" rx="16" fill="#ffffff" stroke="#d0d7de"/>
    <rect x="12" y="12" width="236" height="78" rx="12" fill="#24283b"/>
    <rect x="28" y="28" width="94" height="46" rx="8" fill="#28344a"/>
    <circle cx="204" cy="51" r="23" fill="#7aa2f7"/>
    <text x="42" y="57" font-family="Inter, Segoe UI, Arial, sans-serif" font-size="14" font-weight="700" fill="#c0caf5">Aa</text>
    <text x="14" y="112" font-family="Inter, Segoe UI, Arial, sans-serif" font-size="14" font-weight="700" fill="#1f2328">Tokyo Night Storm</text>
    <text x="14" y="126" font-family="Inter, Segoe UI, Arial, sans-serif" font-size="10" fill="#59636e">tokyo-night-storm</text>
    <text x="206" y="124" text-anchor="middle" font-family="Inter, Segoe UI, Arial, sans-serif" font-size="10" font-weight="700" fill="#59636e">DARK</text>
  </g>
</svg>
